<svg id="Layer_1" enable-background="new 0 0 512 512" height="512" viewBox="0 0 512 512" width="512" xmlns="http://www.w3.org/2000/svg"><g><path d="m30.905 93.936h450.189v388.992h-450.189z" fill="#ecf5ff"/><path d="m450.189 93.936h30.905v388.992h-30.905z" fill="#dceafc"/><path d="m10.302 78.451h491.396c5.69 0 10.302 4.622 10.302 10.323v10.323c0 5.701-4.612 10.323-10.302 10.323h-491.396c-5.69.001-10.302-4.621-10.302-10.322v-10.323c0-5.702 4.612-10.324 10.302-10.324z" fill="#4f6d8f"/><path d="m501.698 78.451h-30.905c5.69 0 10.302 4.622 10.302 10.323v10.323c0 5.701-4.612 10.323-10.302 10.323h30.905c5.69 0 10.302-4.622 10.302-10.323v-10.322c0-5.702-4.612-10.324-10.302-10.324z" fill="#455e7e"/><path d="m319.981 46.683c-2.662 0-5.052-1.696-5.862-4.232-7.853-24.618-30.897-42.451-58.119-42.451s-50.266 17.833-58.12 42.451c-.809 2.536-3.199 4.232-5.862 4.232h-77.94c-3.414 0-6.181 2.767-6.181 6.181v82.143c0 3.414 2.767 6.181 6.181 6.181h283.842c3.414 0 6.181-2.767 6.181-6.181v-82.142c0-3.414-2.767-6.181-6.181-6.181h-77.939z" fill="#f6df7f"/><g fill="#efd06f"><path d="m283.214 42.451c.809 2.536 3.199 4.232 5.862 4.232h30.905c-2.662 0-5.052-1.696-5.862-4.232-7.853-24.618-30.897-42.451-58.119-42.451-5.341 0-10.517.696-15.453 1.985 20.223 5.283 36.354 20.678 42.667 40.466z"/><path d="m397.921 46.683h-30.905c3.414 0 6.181 2.767 6.181 6.181v82.143c0 3.414-2.767 6.181-6.181 6.181h30.905c3.414 0 6.181-2.767 6.181-6.181v-82.143c0-3.413-2.767-6.181-6.181-6.181z"/></g><path d="m10.302 481.03h491.396c5.69 0 10.302 4.622 10.302 10.323v10.323c0 5.701-4.612 10.323-10.302 10.323h-491.396c-5.69.001-10.302-4.621-10.302-10.322v-10.323c0-5.702 4.612-10.324 10.302-10.324z" fill="#bee49d"/><path d="m501.698 481.03h-30.905c5.69 0 10.302 4.622 10.302 10.323v10.323c0 5.701-4.612 10.323-10.302 10.323h30.905c5.69 0 10.302-4.622 10.302-10.323v-10.323c0-5.701-4.612-10.323-10.302-10.323z" fill="#a3d8a4"/><path d="m180.428 328.079h151.145v152.95h-151.145z" fill="#4f6d8f"/><path d="m300.667 328.079h30.905v152.95h-30.905z" fill="#455e7e"/><g><path d="m248.274 481.03v-152.951c0-4.268 3.459-7.726 7.726-7.726s7.726 3.459 7.726 7.726v152.951z" fill="#455e7e"/></g><path d="m339.814 297.174h-167.628c-3.983 0-7.211 3.229-7.211 7.211v16.483c0 3.983 3.229 7.211 7.211 7.211h167.628c3.983 0 7.211-3.229 7.211-7.211v-16.483c0-3.982-3.228-7.211-7.211-7.211z" fill="#db8894"/><path d="m339.814 297.174h-30.905c3.983 0 7.211 3.229 7.211 7.211v16.483c0 3.983-3.229 7.211-7.211 7.211h30.905c3.983 0 7.211-3.229 7.211-7.211v-16.483c0-3.982-3.228-7.211-7.211-7.211z" fill="#d4717f"/><g fill="#db8894"><path d="m431.504 240.513c.006-.067-17.956-47.579-17.988-47.655-1.366-3.319-4.565-5.463-8.154-5.463-.003 0-.006 0-.009 0-3.592.004-6.792 2.154-8.152 5.479-.066.161-18.071 47.44-18.138 47.617-1.519 3.988.482 8.452 4.47 9.971 3.894 1.483 8.439-.433 9.97-4.47l2.605-6.84h18.364l2.573 6.818c1.507 3.991 5.963 6.006 9.957 4.5 3.993-1.506 6.009-5.964 4.502-9.957zm-29.509-16.814 3.339-8.767 3.308 8.767z"/><path d="m222.228 187.395c-4.267.041-7.692 3.534-7.651 7.801l.23 23.74-19.416-28.115c-1.921-2.783-5.428-3.992-8.657-2.986-3.228 1.006-5.427 3.995-5.427 7.376v48.029c0 4.268 3.459 7.726 7.726 7.726s7.726-3.459 7.726-7.726v-23.244l18.392 26.633c2.202 3.183 5.903 4.53 9.429 3.428 3.583-1.119 5.898-4.431 5.898-8.512l-.45-46.498c-.04-4.267-3.483-7.698-7.8-7.652z"/><path d="m353.991 194.451c-.798-3.921-4.145-6.816-8.139-7.041-3.978-.211-7.645 2.276-8.88 6.08-.079.242-7.009 24.559-7.082 24.827l-7.269-24.638c-1.161-3.938-4.959-6.536-9.032-6.262-3.992.269-7.308 3.199-8.08 7.216l-8.458 46.859c-.758 4.199 2.032 8.217 6.231 8.976 4.193.755 8.218-2.031 8.976-6.231l3.479-19.28 5.821 19.728c1.108 3.73 4.557 6.281 8.441 6.281h.045c3.898 0 7.349-2.603 8.42-6.359l5.616-19.702 3.71 19.41c.801 4.191 4.849 6.951 9.039 6.138 4.192-.801 6.94-4.848 6.139-9.039z"/><path d="m158.128 187.395c-4.267 0-7.726 3.459-7.726 7.726v48.12c0 4.268 3.459 7.726 7.726 7.726s7.726-3.459 7.726-7.726v-48.12c.001-4.267-3.459-7.726-7.726-7.726z"/><path d="m273.749 203.288c4.267 0 7.726-3.459 7.726-7.726s-3.459-7.726-7.726-7.726h-20.09c-4.267 0-7.726 3.459-7.726 7.726v47.68c0 4.268 3.459 7.726 7.726 7.726h20.09c4.267 0 7.726-3.459 7.726-7.726 0-4.268-3.459-7.726-7.726-7.726h-12.364v-8.387h10.883c4.267 0 7.726-3.459 7.726-7.726s-3.459-7.726-7.726-7.726h-10.883v-8.387h12.364z"/><path d="m131.905 230.527c-4.552-3.816-8.475-1.022-12.055 2.167-2.102 1.872-4.815 2.821-8.066 2.821-9.007 0-16.333-7.327-16.333-16.334 0-9.006 7.327-16.333 16.333-16.333 3.274 0 6.43.963 9.127 2.785 3.536 2.387 8.339 1.459 10.727-2.077 2.389-3.536 1.458-8.339-2.077-10.727-5.262-3.554-11.408-5.433-17.777-5.433-17.527 0-31.786 14.259-31.786 31.786s14.259 31.787 31.786 31.787c7.054 0 13.397-2.329 18.345-6.735 4.098-3.651 6.679-9.597 1.776-13.707z"/></g><path d="m260.667 45.952 7.398 14.99c.758 1.536 2.223 2.6 3.918 2.847l16.543 2.404c4.268.62 5.973 5.866 2.884 8.876l-11.97 11.669c-1.227 1.196-1.786 2.918-1.497 4.606l2.826 16.476c.729 4.251-3.733 7.493-7.551 5.486l-14.796-7.779c-1.516-.797-3.327-.797-4.843 0l-14.796 7.779c-3.818 2.007-8.28-1.235-7.551-5.486l2.826-16.476c.29-1.688-.27-3.411-1.497-4.606l-11.971-11.668c-3.089-3.011-1.384-8.256 2.884-8.876l16.543-2.404c1.695-.246 3.16-1.311 3.918-2.847l7.398-14.99c1.909-3.869 7.425-3.869 9.334-.001z" fill="#db8894"/><g fill="#fff"><circle cx="348.716" cy="93.936" r="19.78"/><circle cx="163.284" cy="93.936" r="19.78"/></g></g></svg>